<svg xmlns="http://www.w3.org/2000/svg" width="1200" height="700" viewBox="0 0 1200 700">
  <rect width="1200" height="700" rx="28" fill="#070a0b"/>
  <rect x="40" y="32" width="1120" height="636" rx="22" fill="#111516" stroke="#2c3435"/>
  <text x="80" y="90" font-family="-apple-system,sans-serif" font-size="30" font-weight="700" fill="#f5f7f7">Abar 状态中心</text>
  <text x="80" y="122" font-family="-apple-system,sans-serif" font-size="16" fill="#9ca7a8">查看连接、隐私、本地数据和修复建议</text>
  <rect x="80" y="152" width="1040" height="48" rx="10" fill="#222829"/>
  <rect x="84" y="156" width="334" height="40" rx="8" fill="#343c3d"/>
  <text x="235" y="182" font-family="-apple-system,sans-serif" font-size="15" font-weight="600" fill="#fff">状态</text>
  <text x="520" y="182" font-family="-apple-system,sans-serif" font-size="15" fill="#aeb8b9">隐私与本地数据</text>
  <text x="880" y="182" font-family="-apple-system,sans-serif" font-size="15" fill="#aeb8b9">诊断与关于</text>
  <g transform="translate(80 228)">
    <rect width="1040" height="118" rx="16" fill="#171c1d" stroke="#2c3435"/>
    <circle cx="42" cy="40" r="16" fill="#37e58c"/>
    <path d="M34 40l6 6 12-14" fill="none" stroke="#10251a" stroke-width="4" stroke-linecap="round"/>
    <text x="74" y="42" font-family="-apple-system,sans-serif" font-size="19" font-weight="700" fill="#f5f7f7">Codex 已连接</text>
    <text x="74" y="72" font-family="-apple-system,sans-serif" font-size="15" fill="#9ca7a8">本地任务追踪正在工作；Hook 信任状态请在 Codex 的 /hooks 中确认。</text>
  </g>
  <g transform="translate(80 366)">
    <rect width="1040" height="146" rx="16" fill="#211715" stroke="#7b3c32"/>
    <circle cx="42" cy="40" r="16" fill="#ff765f"/>
    <text x="37" y="47" font-family="-apple-system,sans-serif" font-size="20" font-weight="800" fill="#fff">!</text>
    <text x="74" y="42" font-family="-apple-system,sans-serif" font-size="19" font-weight="700" fill="#f5f7f7">额度数据暂时不可用</text>
    <text x="74" y="72" font-family="-apple-system,sans-serif" font-size="15" fill="#b9a3a0">任务追踪仍可继续使用；Abar 会保留最近一次可用额度。</text>
    <rect x="74" y="94" width="120" height="36" rx="8" fill="#ff765f"/>
    <text x="102" y="118" font-family="-apple-system,sans-serif" font-size="14" font-weight="600" fill="#23100c">重试额度</text>
    <rect x="206" y="94" width="144" height="36" rx="8" fill="#2b2220" stroke="#6e514b"/>
    <text x="231" y="118" font-family="-apple-system,sans-serif" font-size="14" fill="#f5f7f7">使用缓存数据</text>
    <text x="910" y="118" font-family="-apple-system,sans-serif" font-size="14" fill="#b9a3a0">技术详情 ▾</text>
  </g>
  <g transform="translate(80 532)">
    <rect width="1040" height="102" rx="16" fill="#171c1d" stroke="#2c3435"/>
    <circle cx="42" cy="40" r="16" fill="#37e58c"/>
    <path d="M34 40l6 6 12-14" fill="none" stroke="#10251a" stroke-width="4" stroke-linecap="round"/>
    <text x="74" y="42" font-family="-apple-system,sans-serif" font-size="19" font-weight="700" fill="#f5f7f7">隐私数据保存在本机</text>
    <text x="74" y="72" font-family="-apple-system,sans-serif" font-size="15" fill="#9ca7a8">仅保存任务短标题和必要元数据，使用滚动 24 小时保留策略。</text>
  </g>
</svg>
